<?xml version="1.0" encoding="UTF-8" standalone="no"?>
<svg
   xmlns:dc="http://purl.org/dc/elements/1.1/"
   xmlns:cc="http://creativecommons.org/ns#"
   xmlns:rdf="http://www.w3.org/1999/02/22-rdf-syntax-ns#"
   xmlns:svg="http://www.w3.org/2000/svg"
   xmlns="http://www.w3.org/2000/svg"
   xmlns:sodipodi="http://sodipodi.sourceforge.net/DTD/sodipodi-0.dtd"
   xmlns:inkscape="http://www.inkscape.org/namespaces/inkscape"
   version="1.1"
   id="svg2"
   xml:space="preserve"
   width="707.96002"
   height="666.65332"
   viewBox="0 0 707.96002 666.65332"
   sodipodi:docname="GitHub-Mark.eps"
   inkscape:version="1.0.2 (394de47547, 2021-03-26)"><metadata
     id="metadata8"><rdf:RDF><cc:Work
         rdf:about=""><dc:format>image/svg+xml</dc:format><dc:type
           rdf:resource="http://purl.org/dc/dcmitype/StillImage" /><dc:title></dc:title></cc:Work></rdf:RDF></metadata><defs
     id="defs6" /><sodipodi:namedview
     pagecolor="#ffffff"
     bordercolor="#666666"
     borderopacity="1"
     objecttolerance="10"
     gridtolerance="10"
     guidetolerance="10"
     inkscape:pageopacity="0"
     inkscape:pageshadow="2"
     inkscape:window-width="1849"
     inkscape:window-height="1025"
     id="namedview4"
     showgrid="false"
     inkscape:pagecheckerboard="true"
     inkscape:zoom="1.3170264"
     inkscape:cx="353.98001"
     inkscape:cy="333.32666"
     inkscape:window-x="71"
     inkscape:window-y="27"
     inkscape:window-maximized="1"
     inkscape:current-layer="g12" /><g
     id="g10"
     inkscape:groupmode="layer"
     inkscape:label="ink_ext_XXXXXX"
     transform="matrix(1.3333333,0,0,-1.3333333,0,666.65333)"><g
       id="g12"
       transform="scale(0.1)"><path
         d="m 2248.98,4994.88 v -5"
         style="fill:none;stroke:#3a7fc3;stroke-width:10;stroke-linecap:round;stroke-linejoin:miter;stroke-miterlimit:10;stroke-dasharray:none;stroke-opacity:1"
         id="path34" /><path
         d="m 2587.0647,4568.3458 c -641.5505,0 -1161.8383,-520.2166 -1161.8383,-1161.981 0,-513.3688 332.9015,-948.8441 794.6266,-1102.491 58.1347,-10.6996 79.32,25.1798 79.32,55.9948 0,27.6051 -0.9986,100.648 -1.5693,197.5867 -323.2004,-70.1896 -391.3928,155.7868 -391.3928,155.7868 -52.8562,134.2448 -129.0377,169.9816 -129.0377,169.9816 -105.4984,72.0443 7.9891,70.6176 7.9891,70.6176 116.6261,-8.203 177.9707,-119.7646 177.9707,-119.7646 103.6438,-177.5427 271.9848,-126.2558 338.18,-96.5108 10.5569,75.0402 40.5873,126.2558 73.7561,155.2875 -258.004,29.317 -529.2755,129.0376 -529.2755,574.2854 0,126.8264 45.2951,230.6129 119.622,311.7875 -11.9836,29.3883 -51.8576,147.5837 11.4129,307.5077 0,0 97.5094,31.2429 319.4913,-119.1227 92.6589,25.8218 192.0942,38.6614 290.8876,39.1607 98.722,-0.4993 198.086,-13.3389 290.8875,-39.1607 221.8392,150.3656 319.206,119.1227 319.206,119.1227 63.4132,-159.924 23.5392,-278.1194 11.6269,-307.5077 74.4695,-81.1746 119.408,-184.9611 119.408,-311.7875 0,-446.389 -271.6995,-544.6117 -530.4882,-573.3581 41.6573,-35.8795 78.8207,-106.7824 78.8207,-215.1341 0,-155.3588 -1.4266,-280.6873 -1.4266,-318.778 0,-31.1003 20.9713,-67.2651 79.8906,-55.9234 461.3685,154.0035 793.9847,589.1935 793.9847,1102.4196 0,641.7644 -520.2879,1161.981 -1162.0523,1161.981"
         style="fill:#ffffff;fill-opacity:1;fill-rule:evenodd;stroke:none;stroke-width:7.13309"
         id="path106" /><path
         d="m 1502.6763,1559.3134 h -302.67 c -7.81,0 -14.14,-6.34 -14.14,-14.15 v -147.98 c 0,-7.81 6.33,-14.17 14.14,-14.17 h 118.07 v -183.85 c 0,0 -26.51,-9.04 -99.81,-9.04 -86.47,0 -207.27,31.6 -207.27,297.23 0,265.7 125.79,300.65 243.88,300.65 102.23,0 146.26,-17.99 174.29,-26.67 8.81,-2.7 16.95,6.07 16.95,13.89 l 33.76,142.97 c 0,3.67 -1.24,8.06 -5.4,11.05 -11.38,8.12 -80.81,46.97 -256.21,46.97 -202.05,0 -409.31997,-85.96 -409.31997,-499.22 0,-413.26 237.29997,-474.841 437.26997,-474.841 165.57,0 266.01,70.751 266.01,70.751 4.14,2.29 4.59,8.08 4.59,10.72 v 461.54 c 0,7.81 -6.33,14.15 -14.14,14.15"
         style="fill:#ffffff;fill-opacity:1;fill-rule:nonzero;stroke:none"
         id="path16" /><path
         d="m 3062.5163,1926.6934 c 0,7.88 -6.24,14.23 -14.06,14.23 h -170.42 c -7.78,0 -14.11,-6.35 -14.11,-14.23 0,-0.03 0.05,-329.34 0.05,-329.34 h -265.65 v 329.34 c 0,7.88 -6.26,14.23 -14.06,14.23 h -170.41 c -7.75,0 -14.08,-6.35 -14.08,-14.23 v -891.768 c 0,-7.871 6.33,-14.262 14.08,-14.262 h 170.41 c 7.8,0 14.06,6.391 14.06,14.262 v 381.448 h 265.65 c 0,0 -0.47,-381.42 -0.47,-381.448 0,-7.871 6.32,-14.262 14.12,-14.262 h 170.82 c 7.81,0 14.05,6.391 14.07,14.262 v 891.768"
         style="fill:#ffffff;fill-opacity:1;fill-rule:nonzero;stroke:none"
         id="path18" /><path
         d="m 1824.2663,1809.6834 c 0,61.36 -49.19,110.95 -109.89,110.95 -60.64,0 -109.88,-49.59 -109.88,-110.95 0,-61.31 49.24,-111.04 109.88,-111.04 60.7,0 109.89,49.73 109.89,111.04"
         style="fill:#ffffff;fill-opacity:1;fill-rule:nonzero;stroke:none"
         id="path20" /><path
         d="m 1812.0863,1223.0434 c 0,22.85 0,411.64 0,411.64 0,7.82 -6.31,14.21 -14.1,14.21 h -169.89 c -7.79,0 -14.76,-8.04 -14.76,-15.85 0,0 0,-495.34 0,-589.77 0,-17.328 10.8,-22.488 24.77,-22.488 0,0 72.52,0 153.06,0 16.8,0 20.92,8.25 20.92,22.769 0,31.609 0,155.449 0,179.489"
         style="fill:#ffffff;fill-opacity:1;fill-rule:nonzero;stroke:none"
         id="path22" /><path
         d="m 3710.1863,1647.5534 h -169.11 c -7.75,0 -14.07,-6.4 -14.07,-14.27 v -437.25 c 0,0 -42.97,-31.44 -103.95,-31.44 -60.97,0 -77.15,27.67 -77.15,87.37 0,59.79 0,381.32 0,381.32 0,7.87 -6.3,14.27 -14.07,14.27 h -171.64 c -7.74,0 -14.09,-6.4 -14.09,-14.27 0,0 0,-232.85 0,-410.18 0,-177.361 98.84,-220.748 234.81,-220.748 111.56,0 201.5,61.638 201.5,61.638 0,0 4.28,-32.49 6.22,-36.33 1.93,-3.839 6.98,-7.73 12.44,-7.73 l 109.19,0.492 c 7.74,0 14.09,6.399 14.09,14.238 l -0.06,598.62 c 0,7.87 -6.31,14.27 -14.11,14.27"
         style="fill:#ffffff;fill-opacity:1;fill-rule:nonzero;stroke:none"
         id="path24" /><path
         d="m 4105.7063,1165.1334 c -58.66,1.78 -98.45,28.41 -98.45,28.41 v 282.4 c 0,0 39.25,24.06 87.41,28.36 60.9,5.46 119.58,-12.94 119.58,-158.22 0,-153.19 -26.48,-183.42 -108.54,-180.95 z m 66.7,502.45 c -96.05,0 -161.38,-42.85 -161.38,-42.85 v 301.96 c 0,7.88 -6.3,14.23 -14.06,14.23 h -170.91 c -7.77,0 -14.08,-6.35 -14.08,-14.23 v -891.768 c 0,-7.871 6.31,-14.262 14.1,-14.262 0.02,0 118.54,0 118.58,0 5.34,0 9.38,2.75 12.37,7.559 2.95,4.801 7.2,41.131 7.2,41.131 0,0 69.88,-66.229 202.17,-66.229 155.32,0 244.39,78.779 244.39,353.659 0,274.88 -142.26,310.8 -238.38,310.8"
         style="fill:#ffffff;fill-opacity:1;fill-rule:nonzero;stroke:none"
         id="path26" /><path
         d="m 2301.8863,1648.9734 h -127.84 c 0,0 -0.19,168.84 -0.19,168.88 0,6.4 -3.3,9.59 -10.69,9.59 h -174.2 c -6.78,0 -10.41,-2.98 -10.41,-9.49 v -174.52 c 0,0 -87.3,-21.08 -93.21,-22.77 -5.87,-1.71 -10.2,-7.13 -10.2,-13.6 v -109.67 c 0,-7.89 6.3,-14.25 14.09,-14.25 h 89.32 c 0,0 0,-114.7 0,-263.84 0,-195.968 137.46,-215.222 230.21,-215.222 42.39,0 93.09,13.622 101.46,16.704 5.06,1.867 8,7.109 8,12.8 l 0.15,120.638 c 0,7.86 -6.65,14.24 -14.13,14.24 -7.46,0 -26.51,-3.04 -46.13,-3.04 -62.8,0 -84.07,29.2 -84.07,66.99 0,37.77 -0.01,250.73 -0.01,250.73 h 127.85 c 7.79,0 14.1,6.36 14.1,14.25 v 137.37 c 0,7.87 -6.31,14.21 -14.1,14.21"
         style="fill:#ffffff;fill-opacity:1;fill-rule:nonzero;stroke:none"
         id="path28" /></g></g></svg>
